Coordinates
version=1
nRows=27
nColumns=12
inDegrees=yes

Units are S.I. units (second, meters, Newtons, ...)
Angles are in degrees

endheader
time	SC_y	SC_z	SC_x	AC_y	AC_z	AC_x	GH_y	GH_z	GH_yy	EL_x	PS_y
       0.0              -19.82          30.76          78.23          49.72          -17.0          10.53         -124.9           13.6         -174.0          85.89          35.41
   0.01586              -19.82          30.76          78.22          49.73          -17.0          10.53         -124.8           13.6         -174.0          85.89          35.42
   0.03172              -19.83          30.75          78.21          49.73         -16.99          10.53         -124.8           13.6         -174.0          85.88          35.43
   0.04758              -19.83          30.75           78.2          49.73         -16.99          10.53         -124.8          13.59         -174.0          85.88          35.44
   0.06344              -19.84          30.75          78.19          49.74         -16.98          10.53         -124.8          13.59         -173.9          85.88          35.44
    0.0793              -19.84          30.74          78.19          49.74         -16.98          10.52         -124.8          13.59         -173.9          85.88          35.45
   0.09516              -19.85          30.74          78.18          49.74         -16.98          10.52         -124.7          13.58         -173.9          85.87          35.46
     0.111              -19.85          30.73          78.16          49.75         -16.97          10.52         -124.7          13.58         -173.9          85.87          35.47
    0.1269              -19.86          30.73          78.15          49.75         -16.96          10.51         -124.7          13.57         -173.9          85.87          35.48
    0.1427              -19.87          30.72          78.14          49.76         -16.96          10.51         -124.7          13.57         -173.8          85.86          35.49
    0.1586              -19.88          30.72          78.13          49.76         -16.95          10.51         -124.6          13.56         -173.8          85.86          35.51
    0.1745              -19.89          30.71          78.11          49.77         -16.94           10.5         -124.6          13.56         -173.8          85.86          35.52
    0.1903              -19.89          30.71           78.1          49.77         -16.94           10.5         -124.6          13.55         -173.8          85.85          35.53
    0.2062              -19.91           30.7          78.08          49.78         -16.93          10.49         -124.5          13.54         -173.7          85.85          35.55
     0.222              -19.92          30.69          78.06          49.78         -16.92          10.49         -124.5          13.53         -173.7          85.84          35.57
    0.2379              -19.93          30.68          78.04          49.79         -16.91          10.48         -124.5          13.53         -173.7          85.83          35.59
    0.2538              -19.94          30.68          78.02           49.8          -16.9          10.47         -124.4          13.52         -173.6          85.83          35.61
    0.2696              -19.96          30.67           78.0          49.81         -16.89          10.47         -124.4          13.51         -173.6          85.82          35.63
    0.2855              -19.97          30.66          77.97          49.82         -16.87          10.46         -124.3           13.5         -173.5          85.81          35.65
    0.3013              -19.99          30.64          77.95          49.83         -16.86          10.45         -124.2          13.49         -173.5          85.81          35.68
    0.3172              -20.01          30.63          77.92          49.84         -16.85          10.44         -124.2          13.47         -173.4           85.8          35.71
    0.3331              -20.03          30.62          77.88          49.85         -16.83          10.43         -124.1          13.46         -173.4          85.79          35.74
    0.3489              -20.05           30.6          77.85          49.86         -16.81          10.42         -124.0          13.44         -173.3          85.78          35.77
    0.3648              -20.07          30.58           77.8          49.88         -16.79          10.41         -123.9          13.43         -173.2          85.76          35.81
    0.3806               -20.1          30.57          77.76           49.9         -16.77           10.4         -123.8          13.41         -173.1          85.75          35.85
    0.3965              -20.13          30.55          77.71          49.91         -16.74          10.38         -123.7          13.38         -173.0          85.73           35.9
    0.4124              -20.17          30.52          77.65          49.94         -16.71          10.37         -123.6          13.36         -172.9          85.72          35.95
